<?xml version="1.0" standalone="no"?>
<!DOCTYPE svg PUBLIC "-//W3C//DTD SVG 20010904//EN"
 "http://www.w3.org/TR/2001/REC-SVG-20010904/DTD/svg10.dtd">
<svg version="1.0" xmlns="http://www.w3.org/2000/svg"
 width="512.000000pt" height="512.000000pt" viewBox="0 0 512.000000 512.000000"
 preserveAspectRatio="xMidYMid meet">
<metadata>
Created by potrace 1.11, written by Peter Selinger 2001-2013
</metadata>
<g transform="translate(0.000000,512.000000) scale(0.100000,-0.100000)"
fill="#000000" stroke="none">
<path d="M2193 4979 c-93 -17 -181 -86 -224 -175 l-24 -49 0 -1365 0 -1365 21
-46 c26 -55 86 -124 128 -147 77 -41 86 -42 775 -42 l663 0 -6 -133 c-4 -72
-9 -148 -12 -167 -3 -19 -9 -64 -15 -100 -50 -323 -174 -553 -369 -687 -84
-57 -246 -125 -330 -139 -23 -4 -38 -7 -100 -19 -14 -3 -50 -8 -80 -11 -30 -3
-82 -10 -115 -14 -69 -10 -1004 -6 -1050 4 -84 19 -181 49 -218 68 -209 106
-329 272 -399 553 -18 70 -21 123 -25 440 l-5 360 68 39 c237 136 376 427 369
771 -6 249 -98 472 -256 619 -198 183 -443 206 -656 60 -70 -48 -96 -73 -157
-154 -115 -152 -168 -320 -171 -543 -3 -218 41 -379 148 -542 50 -76 160 -182
223 -215 l49 -26 2 -284 c2 -292 7 -462 18 -515 3 -16 8 -41 10 -55 3 -14 8
-37 10 -51 10 -55 58 -188 100 -276 138 -293 377 -501 666 -581 174 -48 275
-55 814 -56 383 -1 542 7 695 35 30 6 66 12 80 15 178 32 401 120 525 208 60
42 71 52 155 136 125 126 209 259 275 435 32 86 77 254 89 330 2 17 8 50 12
75 10 64 22 222 27 370 l2 45 495 5 495 5 50 27 c68 36 113 82 144 148 l26 55
0 1365 0 1365 -22 45 c-35 70 -91 127 -158 157 l-60 28 -1320 1 c-726 0 -1339
-3 -1362 -7z m1582 -484 c265 -45 534 -208 699 -425 257 -337 302 -799 114
-1175 -147 -292 -399 -500 -710 -583 -114 -31 -145 -35 -275 -37 -116 -3 -153
1 -268 26 -356 77 -677 361 -798 704 -50 141 -68 243 -67 385 0 110 5 160 26
250 73 319 285 592 576 742 115 60 235 100 343 114 28 3 52 8 54 9 6 6 263 -3
306 -10z"/>
<path d="M3460 4219 c-85 -15 -101 -20 -153 -40 -212 -83 -362 -214 -461 -402
-71 -134 -91 -222 -90 -392 0 -126 8 -195 25 -226 5 -11 7 -19 5 -19 -5 0 16
-54 52 -130 84 -184 276 -351 483 -420 387 -131 805 31 1007 390 69 122 93
218 97 385 4 121 1 151 -19 225 -44 166 -120 294 -244 412 -115 108 -275 189
-422 214 -52 9 -237 11 -280 3z m333 -223 c205 -69 368 -243 423 -451 20 -78
20 -233 0 -311 -43 -167 -153 -316 -296 -401 -243 -146 -570 -109 -768 86 -65
64 -102 106 -102 116 0 3 -11 22 -23 43 -46 72 -84 217 -81 307 5 188 73 345
201 467 53 50 171 128 194 128 5 0 17 5 27 10 79 46 297 50 425 6z"/>
<path d="M3570 3957 c-14 -7 -26 -23 -28 -36 -4 -26 23 -61 48 -61 9 0 25 9
34 19 38 41 -5 102 -54 78z"/>
<path d="M3180 3789 c-26 -48 7 -91 57 -73 52 18 38 94 -17 94 -19 0 -33 -7
-40 -21z"/>
<path d="M3926 3794 c-32 -31 -8 -84 38 -84 29 0 46 18 46 50 0 14 -5 31 -12
38 -17 17 -54 15 -72 -4z"/>
<path d="M3550 3750 c-17 -17 -20 -33 -20 -126 0 -102 -1 -107 -25 -126 -100
-79 -53 -240 73 -253 84 -8 165 67 158 146 -4 43 -30 94 -53 108 -15 8 -18 26
-19 120 0 92 -3 114 -19 131 -23 26 -69 26 -95 0z"/>
<path d="M3033 3428 c-43 -56 22 -121 72 -72 18 18 13 63 -8 76 -19 12 -54 9
-64 -4z"/>
<path d="M4077 3422 c-18 -20 -17 -43 2 -66 20 -24 58 -20 77 9 15 23 15 27 0
50 -19 29 -56 33 -79 7z"/>
<path d="M3186 3054 c-42 -42 4 -101 59 -76 19 9 25 19 25 41 0 46 -52 68 -84
35z"/>
<path d="M3925 3054 c-25 -25 -15 -67 18 -78 36 -13 61 2 65 40 6 47 -49 72
-83 38z"/>
<path d="M3556 2901 c-25 -27 -17 -63 17 -79 25 -12 31 -12 48 4 23 21 25 57
3 78 -21 21 -47 20 -68 -3z"/>
</g>
</svg>
